<svg height="540" viewBox="0 0 960 540" width="960" xmlns="http://www.w3.org/2000/svg"><path d="m0 0h960v540h-960z" fill="#06050a"/><g transform="translate(960 540)"><path d="m-459 0c1.4-49.2 2.9-98.4 22.5-141.8 19.5-43.5 57.3-81.2 98.3-103.9 41.1-22.7 85.5-30.5 118.4-56.9 32.8-26.4 54.1-71.5 88.8-100.6 34.7-29.2 82.8-42.5 131-55.8v459z" fill="#06050b"/><path d="m-401.6 0c1.2-43 2.5-86.1 19.6-124.1 17.2-38 50.2-71 86.1-90.9s74.8-26.6 103.5-49.8c28.8-23.1 47.4-62.5 77.8-88 30.3-25.6 72.5-37.2 114.6-48.8v401.6z" fill="#06060e"/><path d="m-344.2 0c1-36.9 2.1-73.8 16.8-106.4s43-60.8 73.8-77.9c30.8-17 64.1-22.8 88.7-42.6 24.7-19.8 40.6-53.6 66.6-75.5 26.1-21.9 62.2-31.9 98.3-41.8v344.2z" fill="#060710"/><path d="m-286.9 0c.9-30.7 1.8-61.5 14.1-88.6 12.2-27.2 35.8-50.8 61.4-65 25.7-14.2 53.5-19 74-35.5s33.8-44.7 55.5-62.9c21.7-18.3 51.8-26.6 81.9-34.9v286.9z" fill="#060912"/><path d="m-229.5 0c.7-24.6 1.4-49.2 11.2-70.9s28.7-40.6 49.2-51.9c20.6-11.4 42.8-15.3 59.2-28.5s27-35.7 44.4-50.3c17.3-14.6 41.4-21.3 65.5-27.9v229.5z" fill="#050a13"/><path d="m-172.1 0c.5-18.4 1.1-36.9 8.4-53.2s21.5-30.4 36.9-38.9c15.4-8.6 32-11.5 44.4-21.4 12.3-9.9 20.3-26.8 33.3-37.7 13-11 31-15.9 49.1-20.9v172.1z" fill="#040b15"/><path d="m-114.7 0c.3-12.3.7-24.6 5.6-35.5 4.9-10.8 14.3-20.2 24.6-25.9 10.2-5.7 21.3-7.6 29.5-14.2 8.3-6.6 13.6-17.9 22.2-25.2 8.7-7.3 20.8-10.6 32.8-13.9v114.7z" fill="#030c16"/><path d="m-57.4 0c.2-6.1.4-12.3 2.8-17.7 2.5-5.5 7.2-10.2 12.3-13 5.2-2.9 10.7-3.8 14.8-7.1s6.8-9 11.1-12.6c4.4-3.7 10.4-5.3 16.4-7v57.4z" fill="#020d17"/></g><path d="m459 0c-34.7 37.8-69.4 75.7-77.6 123.9-8.3 48.3 10 106.9-10.1 145.9-20 39-78.4 58.4-127.4 65.9-49 7.6-88.6 3.3-127.7 21.9s-77.7 60-116.2 101.4v-459z" fill="#06050b"/><path d="m401.6 0c-30.3 33.1-60.7 66.2-67.9 108.4s8.8 93.5-8.8 127.7c-17.5 34.1-68.6 51.1-111.5 57.7-42.8 6.6-77.5 2.8-111.7 19.1-34.2 16.2-68 52.5-101.7 88.7v-401.6z" fill="#06060e"/><path d="m344.3 0c-26.1 28.4-52.1 56.8-58.3 92.9-6.1 36.2 7.5 80.2-7.5 109.4-15 29.3-58.8 43.8-95.6 49.5-36.7 5.7-66.4 2.5-95.8 16.4-29.3 13.9-58.2 45-87.1 76.1v-344.3z" fill="#060710"/><path d="m286.9 0c-21.7 23.6-43.4 47.3-48.5 77.4-5.2 30.2 6.2 66.8-6.3 91.2s-49 36.5-79.6 41.2c-30.7 4.8-55.4 2.1-79.9 13.7-24.4 11.6-48.5 37.5-72.6 63.4v-286.9z" fill="#060912"/><path d="m229.5 0c-17.3 18.9-34.7 37.8-38.8 62-4.1 24.1 5 53.4-5 72.9-10.1 19.5-39.2 29.2-63.7 33-24.5 3.7-44.4 1.6-63.9 10.9-19.6 9.3-38.8 30-58.1 50.7v-229.5z" fill="#050a13"/><path d="m172.1 0c-13 14.2-26 28.4-29.1 46.5s3.8 40-3.7 54.7c-7.6 14.6-29.5 21.9-47.8 24.7-18.4 2.8-33.3 1.2-47.9 8.2-14.7 7-29.1 22.5-43.6 38v-172.1z" fill="#040b15"/><path d="m114.8 0c-8.7 9.5-17.4 18.9-19.5 31-2 12 2.5 26.7-2.5 36.4-5 9.8-19.6 14.6-31.8 16.5-12.3 1.9-22.2.9-32 5.5-9.7 4.6-19.4 15-29 25.4v-114.8z" fill="#030c16"/><path d="m57.4 0c-4.4 4.7-8.7 9.5-9.7 15.5-1.1 6 1.2 13.3-1.3 18.2s-9.8 7.3-15.9 8.3c-6.1.9-11.1.4-16 2.7s-9.7 7.5-14.5 12.7v-57.4z" fill="#020d17"/></svg>