<svg width="644" height="510" viewBox="0 0 644 510" fill="none" xmlns="http://www.w3.org/2000/svg">
<path d="M643.89 254.98H496.66L423.05 127.49L349.44 0H496.66L570.28 127.49L643.89 254.98Z" fill="#06BBFA"/>
<path d="M496.66 254.98L423.05 382.47V382.51L349.44 510L275.83 382.51V382.47L349.44 254.98H496.66Z" fill="#163FFC"/>
<path d="M496.66 254.98H349.44L275.83 127.49L349.44 0L423.05 127.49L496.66 254.98Z" fill="#017CFB"/>
<path d="M368.17 254.98H220.95L147.34 127.49L73.72 0H220.95L294.56 127.49L368.17 254.98Z" fill="#06BBFA"/>
<path d="M220.95 254.98L147.34 382.47V382.51L73.72 510L0.109985 382.51V382.47L73.72 254.98H220.95Z" fill="#163FFC"/>
<path d="M220.95 254.98H73.72L0.109985 127.49L73.72 0L147.34 127.49L220.95 254.98Z" fill="#017CFB"/>
<path d="M508.98 254.98H496.66H368.17H354.25H220.95L147.34 382.47V382.51L73.72 510H220.95L294.56 382.51V382.47L318.55 340.92H447.04L423.05 382.47V382.51L349.44 510H496.66L570.28 382.51V382.47L643.89 254.98H508.98Z" fill="#1590FF"/>
<path d="M352.32 254.98H529.8L476.02 169.04H306.53L352.32 254.98Z" fill="#06BBFA"/>
</svg>
