<svg width="204" height="50" viewBox="0 0 204 50" fill="none" xmlns="http://www.w3.org/2000/svg">
<g clip-path="url(#clip0_772_20872)">
<path d="M79.0358 24.7386V36.0153C79.0358 36.5676 79.4882 37.0153 80.0462 37.0153H83.5354V24.7386C83.5354 23.7184 83.3324 22.7468 82.9254 21.829C82.5457 20.8914 82.0021 20.0697 81.295 19.3687C80.5883 18.6682 79.7712 18.1282 78.8471 17.7511C77.9198 17.3726 76.9283 17.1853 75.8779 17.1853C74.6936 17.1853 73.5916 17.4256 72.5805 17.9122C71.7615 18.286 71.0323 18.7858 70.3946 19.4097C69.7576 18.7865 69.0292 18.287 68.2114 17.9134C67.2229 17.4251 66.1321 17.1853 64.9491 17.1853C64.1929 17.1853 63.4286 17.3875 62.6619 17.7675L62.6583 17.7693L62.6547 17.7711C62.3451 17.9303 62.0569 18.1075 61.7912 18.303V17.6352H58.3021C57.744 17.6352 57.2916 18.0829 57.2916 18.6352V37.0153H61.7912V24.8136C61.7912 23.9386 62.1076 23.188 62.7651 22.5362C63.3671 21.9395 64.0844 21.6457 64.9491 21.6457C65.8438 21.6457 66.6051 21.9433 67.2601 22.5492L67.2606 22.5497L67.2611 22.5502C67.8436 23.0863 68.1448 23.7859 68.1448 24.7012V37.0153H72.6822V24.7012C72.6822 23.8214 72.9888 23.1177 73.6042 22.5497L73.6047 22.5492C74.2625 21.9407 75.0122 21.6457 75.8779 21.6457C76.7719 21.6457 77.5005 21.9423 78.0997 22.5362L78.1031 22.5396L78.1065 22.5429C78.7286 23.1383 79.0358 23.8586 79.0358 24.7386Z" fill="#FBFDFF"/>
<path d="M87.3478 14.9119L87.3616 14.9267L87.3765 14.9403C87.8302 15.358 88.3792 15.5728 88.9973 15.5728C89.6163 15.5728 90.1607 15.3569 90.595 14.9264C91.0459 14.4794 91.2849 13.9307 91.2849 13.3052C91.2849 12.685 91.0494 12.1462 90.5952 11.7212C90.1665 11.2709 89.6229 11.0375 88.9973 11.0375C88.3663 11.0375 87.8128 11.2744 87.3619 11.7214C86.9276 12.1519 86.7098 12.6916 86.7098 13.3052C86.7098 13.918 86.9265 14.4622 87.3478 14.9119Z" fill="#FBFDFF"/>
<path d="M86.8988 17.1853V37.0153H91.1715V17.1853H86.8988Z" fill="#FBFDFF"/>
<path d="M106.172 25.226V36.0153C106.172 36.5676 106.625 37.0153 107.183 37.0153H110.596V25.226C110.596 24.1316 110.381 23.0967 109.948 22.1271C109.543 21.1416 108.975 20.2827 108.242 19.5562C107.486 18.8067 106.608 18.2301 105.611 17.8283C104.635 17.3995 103.604 17.1853 102.523 17.1853C101.672 17.1853 100.822 17.3966 99.9772 17.8019C99.5757 17.9945 99.2071 18.2136 98.8732 18.4601V17.6352H95.4975C94.9395 17.6352 94.4871 18.0829 94.4871 18.6352V37.0153H98.8732V25.226C98.8732 24.7814 98.9688 24.3449 99.1653 23.912L99.1673 23.9075L99.1692 23.903C99.3708 23.4368 99.6354 23.046 99.9606 22.7237C100.694 21.9966 101.54 21.6457 102.523 21.6457C103.54 21.6457 104.383 21.9902 105.085 22.6862C105.818 23.4132 106.172 24.2513 106.172 25.226Z" fill="#FBFDFF"/>
<path d="M115.269 33.0153C115.269 35.2244 117.079 37.0153 119.311 37.0153H119.579C121.117 37.0153 122.364 35.7817 122.364 34.2599V33.45H120.59C120.032 33.45 119.579 33.0023 119.579 32.45V21.6457H122.416V17.1853H119.579V12C119.579 11.4477 119.127 11 118.569 11H115.269V17.1853H112.433V21.6457H115.269V33.0153Z" fill="#FBFDFF"/>
<path fill-rule="evenodd" clip-rule="evenodd" d="M140.574 34.9237V36.0153C140.574 36.5676 141.026 37.0153 141.584 37.0153H144.998V11.0375H141.584C141.026 11.0375 140.574 11.4852 140.574 12.0375V19.0521C140.001 18.5414 139.357 18.1126 138.642 17.7664C137.5 17.2007 136.23 16.9229 134.844 16.9229C133.439 16.9229 132.118 17.1858 130.887 17.7157C129.659 18.2191 128.588 18.9487 127.68 19.9019C126.751 20.8498 126.021 21.9425 125.491 23.1764L125.49 23.179L125.489 23.1817C124.981 24.4 124.729 25.6954 124.729 27.0628C124.729 28.4303 124.981 29.7367 125.487 30.9776L125.49 30.9842L125.493 30.9906C126.023 32.1992 126.752 33.2778 127.68 34.2238C128.588 35.1762 129.657 35.9173 130.882 36.4454L130.887 36.4474L130.891 36.4493C132.122 36.9531 133.441 37.2027 134.844 37.2027C136.118 37.2027 137.337 36.9067 138.495 36.3196C139.255 35.9428 139.948 35.4772 140.574 34.9237ZM132.666 21.8693L132.673 21.8664L132.68 21.8633C133.367 21.5683 134.087 21.4208 134.844 21.4208C135.602 21.4208 136.322 21.5683 137.009 21.8633L137.019 21.8676L137.029 21.8715C137.739 22.1439 138.338 22.5378 138.835 23.0524C139.341 23.5765 139.746 24.1944 140.049 24.9113L140.05 24.9142L140.052 24.9172C140.349 25.5981 140.498 26.3117 140.498 27.0628C140.498 28.5917 139.952 29.9203 138.836 31.0725L138.835 31.0733C138.335 31.5911 137.731 31.9996 137.015 32.2973L137.012 32.2985L137.009 32.2998C136.322 32.5949 135.602 32.7424 134.844 32.7424C134.087 32.7424 133.367 32.5949 132.68 32.2998C131.989 32.0029 131.394 31.5943 130.892 31.0733L130.891 31.0729V31.0725C129.775 29.9203 129.228 28.5917 129.228 27.0628C129.228 26.3117 129.377 25.5981 129.675 24.9172L129.676 24.9142L129.677 24.9113C129.981 24.1944 130.386 23.5765 130.892 23.0524C131.391 22.5346 131.981 22.1408 132.666 21.8693Z" fill="#FBFDFF"/>
<path d="M156.926 21.8212L157.186 21.9395L161.248 19.5628L160.64 19.07C159.778 18.3707 158.936 17.8499 158.114 17.5241C157.292 17.198 156.428 17.0354 155.528 17.0354C154.416 17.0354 153.365 17.2645 152.382 17.7247L152.373 17.7292L152.363 17.7341C151.068 18.4028 150.036 19.344 149.277 20.553L149.275 20.5567L149.272 20.5605C148.539 21.7721 148.173 23.1062 148.173 24.5512V37.0153H151.511C152.069 37.0153 152.522 36.5676 152.522 36.0153V24.5512C152.522 23.7219 152.816 22.9902 153.433 22.3353V22.3348L153.434 22.3343C153.98 21.751 154.664 21.4583 155.528 21.4583C155.904 21.4583 156.366 21.567 156.926 21.8212Z" fill="#FBFDFF"/>
<path fill-rule="evenodd" clip-rule="evenodd" d="M167.133 36.4079C168.362 36.938 169.66 37.2027 171.019 37.2027C172.403 37.2027 173.724 36.9386 174.978 36.4096C176.225 35.8834 177.318 35.1576 178.251 34.2321C179.184 33.3077 179.904 32.2368 180.411 31.0233C180.944 29.8056 181.21 28.5213 181.21 27.1753C181.21 25.8057 180.945 24.4977 180.412 23.256C179.906 22.0173 179.186 20.9324 178.251 20.006C177.317 19.0797 176.222 18.3655 174.973 17.8641C173.72 17.3364 172.401 17.0729 171.019 17.0729C169.661 17.0729 168.366 17.3369 167.137 17.8657C165.913 18.3676 164.833 19.0816 163.9 20.006C162.967 20.9315 162.235 22.0148 161.704 23.2514C161.17 24.4945 160.904 25.804 160.904 27.1753C160.904 28.5231 161.171 29.809 161.705 31.0281C162.237 32.2394 162.969 33.3086 163.9 34.2321C164.832 35.1556 165.911 35.8813 167.133 36.4079ZM173.221 21.9383L173.231 21.9426L173.242 21.9465C173.952 22.2189 174.551 22.6127 175.048 23.1274C175.553 23.6515 175.959 24.2693 176.262 24.9862C176.562 25.6957 176.711 26.4241 176.711 27.1753C176.711 27.9264 176.562 28.64 176.264 29.3209C175.962 30.0133 175.556 30.6212 175.048 31.1482C174.548 31.6661 173.944 32.0746 173.227 32.3723C172.512 32.6698 171.777 32.8173 171.019 32.8173C170.263 32.8173 169.544 32.6703 168.858 32.3761C168.19 32.079 167.591 31.6679 167.058 31.1396C166.527 30.6134 166.112 30.0083 165.812 29.3209C165.514 28.64 165.365 27.9264 165.365 27.1753C165.365 26.4241 165.514 25.6957 165.814 24.9862C166.116 24.2743 166.53 23.6592 167.058 23.136C168.167 22.0368 169.478 21.4958 171.019 21.4958C171.804 21.4958 172.537 21.6441 173.221 21.9383Z" fill="#FBFDFF"/>
<path fill-rule="evenodd" clip-rule="evenodd" d="M189.788 36.6206L189.794 36.6232L189.799 36.6256C190.851 37.1199 192.135 37.3527 193.626 37.3527C194.985 37.3527 196.281 37.0882 197.511 36.5588C198.759 36.0321 199.84 35.305 200.75 34.3766C201.679 33.4292 202.398 32.3482 202.904 31.1363C203.438 29.9171 203.704 28.62 203.704 27.2503C203.704 25.8814 203.438 24.5849 202.905 23.3663C202.4 22.131 201.682 21.0374 200.753 20.0891C199.842 19.1344 198.758 18.4052 197.506 17.9024C196.278 17.3742 194.983 17.1104 193.626 17.1104C192.347 17.1104 191.125 17.4215 189.964 18.0368C189.236 18.4229 188.572 18.8893 187.972 19.4351V17.6352H184.521C183.963 17.6352 183.51 18.0829 183.51 18.6352V44C183.51 44.5523 183.963 45 184.521 45H187.972V35.3393C188.535 35.8702 189.14 36.299 189.788 36.6206ZM191.447 22.0567L191.454 22.0538L191.461 22.0508C192.148 21.7557 192.868 21.6082 193.626 21.6082C194.384 21.6082 195.104 21.7557 195.79 22.0508L195.798 22.0538L195.805 22.0567C196.49 22.3282 197.079 22.722 197.579 23.2398C198.081 23.7606 198.472 24.3737 198.749 25.0847L198.753 25.0947L198.758 25.1046C199.055 25.7855 199.204 26.4991 199.204 27.2503C199.204 28.0014 199.055 28.715 198.758 29.3959L198.755 29.403L198.752 29.4102C198.475 30.0964 198.084 30.6994 197.579 31.2232C197.076 31.7442 196.482 32.1529 195.79 32.4498C195.104 32.7448 194.384 32.8923 193.626 32.8923C192.868 32.8923 192.148 32.7448 191.461 32.4498C190.77 32.1529 190.176 31.7442 189.673 31.2232C189.165 30.6962 188.759 30.0883 188.456 29.3959C188.159 28.715 188.01 28.0014 188.01 27.2503C188.01 26.4991 188.159 25.7855 188.456 25.1046L188.458 25.1017L188.459 25.0987C188.762 24.3818 189.167 23.7639 189.673 23.2398C190.173 22.722 190.762 22.3282 191.447 22.0567Z" fill="#FBFDFF"/>
<path d="M22.1789 0C31.6377 7.21805 40.94 17.0911 41.3268 29.4752C41.3176 36.4683 37.8269 43.5423 31.5548 47.1963C22.2342 52.6234 8.6861 50.0044 2.98504 40.7883C-0.947688 34.4162 -0.827957 26.1812 2.36796 19.5571C4.90074 14.3101 8.9532 9.88207 13.4385 6.14704C18.1633 9.08106 22.2618 12.9241 25.8998 17.0641C30.1181 21.8612 33.3969 28.7552 30.4312 34.9652C27.1064 41.9133 16.0174 42.5073 11.6333 36.3423C7.70983 31.0052 10.1781 24.0032 13.8898 19.2601L17.5186 22.5722C15.5569 25.8662 12.9872 30.3572 16.0358 33.8222C18.5041 36.6213 24.0118 36.3513 25.8169 32.9222C27.3182 30.0602 26.4064 26.5862 24.7301 23.9942C21.8842 19.5391 18.0989 15.5251 13.678 12.5461C10.0584 16.3801 6.6783 20.7091 5.47177 25.9202C4.02578 32.2022 6.45725 39.4473 12.2044 42.8943C19.2593 47.1243 29.7312 45.1893 33.9863 38.0073C37.6151 31.8602 36.427 24.1742 32.8074 18.3241C29.0773 12.2761 23.5697 7.15505 17.841 2.94302L22.1789 0Z" fill="white"/>
</g>
<defs>
<clipPath id="clip0_772_20872">
<rect width="204" height="50" fill="white"/>
</clipPath>
</defs>
</svg>
