<svg width="25" height="24" viewBox="0 0 25 24" fill="none" xmlns="http://www.w3.org/2000/svg">
<path fill-rule="evenodd" clip-rule="evenodd" d="M22.4259 18.5083C22.6421 21.2813 22.6421 22.5812 22.6421 24H16.2215C16.2215 23.691 16.227 23.4082 16.2326 23.1215C16.25 22.2303 16.2681 21.301 16.1236 19.4242C15.9326 16.6766 14.7485 16.066 12.5713 16.066H10.6424H2.47314V11.0668H12.8769C15.627 11.0668 17.0021 10.2309 17.0021 8.01749C17.0021 6.07125 15.627 4.89183 12.8769 4.89183H2.47314V0H14.0228C20.2488 0 23.3427 2.93843 23.3427 7.6323C23.3427 11.1432 21.1656 13.4328 18.2244 13.8145C20.7072 14.3106 22.1587 15.7225 22.4259 18.5083Z" fill="white"/>
<path d="M2.47314 24.0001V20.2734H9.26195C10.3959 20.2734 10.6421 21.1139 10.6421 21.6151V24.0001H2.47314Z" fill="white"/>
</svg>
