<svg width="51" height="50" viewBox="0 0 51 50" fill="none" xmlns="http://www.w3.org/2000/svg">
<path d="M23.8963 19.7407C24.3052 19.1379 24.7528 19.0612 25.1159 19.0612C25.479 19.0612 26.0839 19.1379 26.493 19.7407C29.7161 24.1682 35.0362 32.9879 38.9607 39.4939C41.52 43.7367 43.4857 46.9953 43.889 47.41C45.4029 48.9668 47.4792 47.9966 48.6857 46.2307C49.8735 44.4923 50.2031 43.2716 50.2031 41.9692C50.2031 41.0822 32.9952 9.07513 31.2621 6.41093C29.5956 3.84842 29.0527 3.20117 26.2003 3.20117H24.0657C21.2218 3.20117 20.8108 3.84842 19.1441 6.41093C17.4112 9.07513 0.203125 41.0822 0.203125 41.9692C0.203125 43.2716 0.532868 44.4923 1.72066 46.2307C2.92715 47.9966 5.00342 48.9668 6.51729 47.41C6.92062 46.9953 8.88632 43.7367 11.4456 39.4939C15.3701 32.9879 20.6732 24.1682 23.8963 19.7407Z" fill="white"/>
</svg>
