<svg width="500" height="500" viewBox="0 0 500 500" fill="none" xmlns="http://www.w3.org/2000/svg">
<path d="M424 250.137H344.467L304.703 181.267L264.938 112.397H344.467L384.236 181.267L424 250.137Z" fill="#FA9806"/>
<path d="M344.466 250.137L304.702 319.007V319.028L264.938 387.898L225.174 319.028V319.007L264.938 250.137H344.466Z" fill="#E64500"/>
<path d="M344.466 250.137H264.938L225.174 181.267L264.938 112.397L304.702 181.267L344.466 250.137Z" fill="#FB7601"/>
<path d="M275.056 250.137H195.528L155.764 181.267L115.995 112.397H195.528L235.292 181.267L275.056 250.137Z" fill="#FA9806"/>
<path d="M195.528 250.137L155.764 319.007V319.028L115.995 387.898L76.2307 319.028V319.007L115.995 250.137H195.528Z" fill="#E64500"/>
<path d="M195.528 250.137H115.995L76.2307 181.267L115.995 112.397L155.764 181.267L195.528 250.137Z" fill="#FB7601"/>
<path d="M351.122 250.137H344.467H275.056H267.537H195.528L155.764 319.007V319.028L115.995 387.898H195.528L235.292 319.028V319.007L248.252 296.561H317.662L304.702 319.007V319.028L264.938 387.898H344.467L384.236 319.028V319.007L424 250.137H351.122Z" fill="#F87400"/>
<path d="M266.494 250.137H362.369L333.317 203.712H241.759L266.494 250.137Z" fill="#FA9806"/>
</svg>
