<svg width="1029" height="285" viewBox="0 0 1029 285" fill="none" xmlns="http://www.w3.org/2000/svg">
<g clip-path="url(#clip0_2320_12)">
<path d="M348 143.137H268.467L228.703 74.2669L188.938 5.39697H268.467L308.236 74.2669L348 143.137Z" fill="#FA9806"/>
<path d="M268.466 143.137L228.702 212.007V212.028L188.938 280.898L149.174 212.028V212.007L188.938 143.137H268.466Z" fill="#E64500"/>
<path d="M268.466 143.137H188.938L149.174 74.2669L188.938 5.39697L228.702 74.2669L268.466 143.137Z" fill="#FB7601"/>
<path d="M199.056 143.137H119.528L79.7642 74.2669L39.9948 5.39697H119.528L159.292 74.2669L199.056 143.137Z" fill="#FA9806"/>
<path d="M119.528 143.137L79.7642 212.007V212.028L39.9948 280.898L0.230713 212.028V212.007L39.9948 143.137H119.528Z" fill="#E64500"/>
<path d="M119.528 143.137H39.9948L0.230713 74.2669L39.9948 5.39697L79.7642 74.2669L119.528 143.137Z" fill="#FB7601"/>
<path d="M275.122 143.137H268.467H199.056H191.537H119.528L79.7642 212.007V212.028L39.9948 280.898H119.528L159.292 212.028V212.007L172.252 189.561H241.662L228.702 212.007V212.028L188.938 280.898H268.467L308.236 212.028V212.007L348 143.137H275.122Z" fill="#F87400"/>
<path d="M190.494 143.137H286.369L257.317 96.7124H165.759L190.494 143.137Z" fill="#FA9806"/>
<path d="M427.784 215V210.84L430.488 210.008C435.48 208.483 437.976 205.016 437.976 199.608V92.488C437.976 89.576 437.491 87.4267 436.52 86.04C435.549 84.5147 433.677 83.4053 430.904 82.712L427.784 81.88V77.928L462.936 68.984L466.264 70.856L465.432 100.184V126.808C470.285 122.787 475.555 119.32 481.24 116.408C487.064 113.496 493.304 112.04 499.96 112.04C509.112 112.04 516.253 114.605 521.384 119.736C526.653 124.867 529.288 132.771 529.288 143.448V199.816C529.288 202.589 529.843 204.808 530.952 206.472C532.061 208.136 534.003 209.384 536.776 210.216L538.648 210.84V215H491.224V210.84L493.72 210.008C498.712 208.621 501.208 205.155 501.208 199.608V139.496C501.208 133.811 500.237 129.859 498.296 127.64C496.355 125.421 492.957 124.312 488.104 124.312C484.776 124.312 481.24 124.936 477.496 126.184C473.891 127.432 470.077 129.512 466.056 132.424V200.024C466.056 202.797 466.611 205.016 467.72 206.68C468.829 208.344 470.701 209.523 473.336 210.216L475.208 210.84V215H427.784ZM559.016 265.128C553.469 265.128 549.101 263.811 545.912 261.176C542.722 258.541 541.128 255.075 541.128 250.776C541.128 246.893 542.445 243.773 545.08 241.416C547.853 239.197 550.904 238.088 554.232 238.088C557.698 238.088 560.541 238.712 562.76 239.96C564.978 241.208 566.92 243.011 568.584 245.368L569.832 247.032C573.021 250.915 576.002 250.845 578.776 246.824C580.578 244.467 582.312 241.555 583.976 238.088C585.778 234.621 587.72 230.045 589.8 224.36L550.28 129.928C549.309 127.293 548.2 125.283 546.952 123.896C545.704 122.371 543.832 121.123 541.336 120.152L537.8 118.904V115.16H589.176V118.904L584.808 120.152C581.757 121.123 580.093 122.648 579.816 124.728C579.677 126.669 580.162 129.235 581.272 132.424L602.488 187.752L622.872 132.008C623.981 128.957 624.397 126.392 624.12 124.312C623.842 122.232 622.109 120.845 618.92 120.152L614.344 118.904V115.16H645.336V118.904L640.76 120.36C637.709 121.192 635.49 122.44 634.104 124.104C632.856 125.629 631.677 127.917 630.568 130.968L597.288 220.408C591.741 235.661 586.056 246.893 580.232 254.104C574.546 261.453 567.474 265.128 559.016 265.128ZM682.084 217.704L647.972 215V211.048L650.051 210.632C655.46 209.384 658.164 205.917 658.164 200.232V92.072C658.164 89.2987 657.609 87.1493 656.5 85.624C655.529 84.0987 653.657 82.9893 650.884 82.296L648.18 81.672V77.928L683.748 68.984L686.452 70.856L685.62 100.184V122.024C695.465 115.368 706.073 112.04 717.444 112.04C729.092 112.04 738.729 116.339 746.356 124.936C753.982 133.395 757.795 146.499 757.795 164.248C757.795 176.035 755.854 185.949 751.972 193.992C748.089 201.896 742.889 207.859 736.372 211.88C729.854 215.901 722.644 217.912 714.74 217.912C709.47 217.912 704.201 217.219 698.932 215.832C693.801 214.445 689.225 212.296 685.204 209.384L682.084 217.704ZM704.964 208.76C709.54 208.76 713.561 207.443 717.028 204.808C720.494 202.173 723.198 197.667 725.14 191.288C727.081 184.909 728.052 176.173 728.052 165.08C728.052 153.987 727.15 145.32 725.348 139.08C723.545 132.84 720.91 128.472 717.444 125.976C714.116 123.48 710.094 122.232 705.38 122.232C699.14 122.232 692.761 124.035 686.244 127.64V203.56C691.929 207.027 698.169 208.76 704.964 208.76ZM767.399 215V211.048L770.519 210.008C773.293 209.315 775.165 208.136 776.135 206.472C777.245 204.808 777.799 202.589 777.799 199.816V138.872C777.661 135.821 777.106 133.533 776.135 132.008C775.165 130.344 773.293 129.235 770.519 128.68L767.399 127.848V124.104L801.303 112.04L803.799 114.328L805.671 132.632V134.088C807.751 130.205 810.386 126.6 813.575 123.272C816.765 119.944 820.231 117.24 823.975 115.16C827.719 113.08 831.463 112.04 835.207 112.04C840.477 112.04 844.429 113.427 847.063 116.2C849.698 118.973 851.015 122.509 851.015 126.808C851.015 131.523 849.698 135.128 847.063 137.624C844.429 139.981 841.239 141.16 837.495 141.16C831.949 141.16 827.165 138.664 823.143 133.672L822.727 133.256C821.341 131.592 819.746 130.691 817.943 130.552C816.279 130.275 814.615 131.107 812.951 133.048C811.565 134.435 810.247 136.099 808.999 138.04C807.89 139.843 806.85 141.992 805.879 144.488V198.984C805.879 201.619 806.434 203.837 807.543 205.64C808.653 207.304 810.525 208.483 813.159 209.176L819.399 211.048V215H767.399ZM881.918 100.6C877.342 100.6 873.459 99.144 870.27 96.232C867.081 93.32 865.486 89.6453 865.486 85.208C865.486 80.632 867.081 76.9573 870.27 74.184C873.459 71.272 877.342 69.816 881.918 69.816C886.494 69.816 890.377 71.272 893.566 74.184C896.755 76.9573 898.35 80.632 898.35 85.208C898.35 89.6453 896.755 93.32 893.566 96.232C890.377 99.144 886.494 100.6 881.918 100.6ZM857.998 215V211.048L861.118 210.216C863.891 209.384 865.763 208.136 866.734 206.472C867.705 204.808 868.259 202.589 868.398 199.816V161.544C868.398 157.245 868.398 153.293 868.398 149.688C868.398 145.944 868.329 142.131 868.19 138.248C868.19 135.475 867.635 133.325 866.526 131.8C865.555 130.136 863.683 129.027 860.91 128.472L857.998 127.848V124.104L894.398 112.04L896.894 114.328L896.27 143.864V200.024C896.27 202.797 896.755 205.016 897.726 206.68C898.835 208.344 900.707 209.592 903.342 210.424L905.63 211.048V215H857.998ZM958.548 217.912C950.367 217.912 943.017 216.109 936.5 212.504C929.983 208.76 924.852 203.075 921.108 195.448C917.503 187.683 915.7 177.837 915.7 165.912C915.7 153.987 917.78 144.072 921.94 136.168C926.1 128.125 931.647 122.093 938.58 118.072C945.513 114.051 953.14 112.04 961.46 112.04C966.452 112.04 971.236 112.664 975.812 113.912C980.388 115.021 984.409 116.755 987.876 119.112V92.072C987.876 89.16 987.391 87.08 986.42 85.832C985.588 84.4453 983.785 83.4053 981.012 82.712L976.852 81.88V77.928L1013.04 68.984L1015.75 70.856L1014.92 100.184V200.232C1014.92 202.867 1015.4 205.085 1016.37 206.888C1017.34 208.552 1019.08 209.731 1021.57 210.424L1023.86 211.048V215L989.332 217.288L987.46 208.552C983.716 211.464 979.417 213.752 974.564 215.416C969.711 217.08 964.372 217.912 958.548 217.912ZM969.988 208.344C975.951 208.344 981.567 206.403 986.836 202.52V125.144C981.705 121.955 976.159 120.36 970.196 120.36C963.401 120.36 957.577 123.965 952.724 131.176C947.871 138.248 945.444 149.688 945.444 165.496C945.444 181.304 947.732 192.397 952.308 198.776C956.884 205.155 962.777 208.344 969.988 208.344Z" fill="black"/>
</g>
<defs>
<clipPath id="clip0_2320_12">
<rect width="1029" height="285" fill="white"/>
</clipPath>
</defs>
</svg>
